name Walk7.mot
datacolumns 19
datarows 20
range 2.20500000 2.22400000
endheader

                time	   L_ground_force_vx	   L_ground_force_vy	   L_ground_force_vz	   L_ground_force_px	   L_ground_force_py	   L_ground_force_pz	   R_ground_force_vx	   R_ground_force_vy	   R_ground_force_vz	   R_ground_force_px	   R_ground_force_py	   R_ground_force_pz	   L_ground_torque_x	   L_ground_torque_y	   L_ground_torque_z	   R_ground_torque_x	   R_ground_torque_y	   R_ground_torque_z	
          2.20500000	        -24.42008176	        534.14045440	         31.12189421	          0.46954152	          0.00000000	          0.19260003	          0.01386301	          0.01657897	          0.00259259	         -0.00003722	          0.00000000	          0.00015209	          0.00000000	         -1.75154726	          0.00000000	          0.00000000	         -0.00006821	          0.00000000	
          2.20600000	        -23.97116176	        533.16486420	         31.30042745	          0.46993881	          0.00000000	          0.19255937	          0.01188946	          0.01229531	          0.00241476	         -0.00003447	          0.00000000	          0.00014185	          0.00000000	         -1.77057144	          0.00000000	          0.00000000	         -0.00005806	          0.00000000	
          2.20700000	        -23.52492189	        532.25134407	         31.48537578	          0.47033590	          0.00000000	          0.19251828	          0.01003877	          0.00832940	          0.00224292	         -0.00003183	          0.00000000	          0.00013195	          0.00000000	         -1.78928678	          0.00000000	          0.00000000	         -0.00004854	          0.00000000	
          2.20800000	        -23.08122257	        531.40008650	         31.67609010	          0.47073271	          0.00000000	          0.19247683	          0.00830751	          0.00466922	          0.00207722	         -0.00002929	          0.00000000	          0.00012239	          0.00000000	         -1.80770154	          0.00000000	          0.00000000	         -0.00003966	          0.00000000	
          2.20900000	        -22.63992608	        530.61125022	         31.87190249	          0.47112918	          0.00000000	          0.19243507	          0.00669205	          0.00130260	          0.00191776	         -0.00002685	          0.00000000	          0.00011318	          0.00000000	         -1.82582573	          0.00000000	          0.00000000	         -0.00003138	          0.00000000	
          2.21000000	        -22.20089615	        529.88495957	         32.07213022	          0.47152523	          0.00000000	          0.19239305	          0.00518866	         -0.00178270	          0.00176461	         -0.00002452	          0.00000000	          0.00010433	          0.00000000	         -1.84367103	          0.00000000	          0.00000000	         -0.00002368	          0.00000000	
          2.21100000	        -21.76399752	        529.22130451	         32.27607981	          0.47192078	          0.00000000	          0.19235083	          0.00379349	         -0.00459894	          0.00161781	         -0.00002230	          0.00000000	          0.00009584	          0.00000000	         -1.86125079	          0.00000000	          0.00000000	         -0.00001655	          0.00000000	
          2.21200000	        -21.32909560	        528.62034159	         32.48305096	          0.47231577	          0.00000000	          0.19230846	          0.00250260	         -0.00715836	          0.00147738	         -0.00002018	          0.00000000	          0.00008770	          0.00000000	         -1.87858003	          0.00000000	          0.00000000	         -0.00000996	          0.00000000	
          2.21300000	        -20.89605604	        528.08209568	         32.69234026	          0.47271014	          0.00000000	          0.19226599	          0.00131202	         -0.00947311	          0.00134331	         -0.00001817	          0.00000000	          0.00007993	          0.00000000	         -1.89567550	          0.00000000	          0.00000000	         -0.00000390	          0.00000000	
          2.21400000	        -20.46474423	        527.60656227	         32.90324481	          0.47310382	          0.00000000	          0.19222348	          0.00021770	         -0.01155525	          0.00121556	         -0.00001625	          0.00000000	          0.00007251	          0.00000000	         -1.91255554	          0.00000000	          0.00000000	          0.00000166	          0.00000000	
          2.21500000	        -20.03502498	        527.19370936	         33.11506547	          0.47349676	          0.00000000	          0.19218097	         -0.00078439	         -0.01341670	          0.00109408	         -0.00001444	          0.00000000	          0.00006546	          0.00000000	         -1.92923990	          0.00000000	          0.00000000	          0.00000675	          0.00000000	
          2.21600000	        -19.60676218	        526.84347828	         33.32710983	          0.47388891	          0.00000000	          0.19213852	         -0.00169832	         -0.01506918	          0.00097879	         -0.00001273	          0.00000000	          0.00005875	          0.00000000	         -1.94574943	          0.00000000	          0.00000000	          0.00001137	          0.00000000	
          2.21700000	        -19.17981875	        526.55578298	         33.53869478	          0.47428022	          0.00000000	          0.19209617	         -0.00252812	         -0.01652422	          0.00086961	         -0.00001111	          0.00000000	          0.00005239	          0.00000000	         -1.96210574	          0.00000000	          0.00000000	          0.00001556	          0.00000000	
          2.21800000	        -18.75405677	        526.33050810	         33.74914873	          0.47467065	          0.00000000	          0.19205399	         -0.00327782	         -0.01779310	          0.00076642	         -0.00000960	          0.00000000	          0.00004638	          0.00000000	         -1.97833103	          0.00000000	          0.00000000	          0.00001934	          0.00000000	
          2.21900000	        -18.32933779	        526.16750669	         33.95781358	          0.47506015	          0.00000000	          0.19201201	         -0.00395139	         -0.01888686	          0.00066911	         -0.00000817	          0.00000000	          0.00004070	          0.00000000	         -1.99444790	          0.00000000	          0.00000000	          0.00002272	          0.00000000	
          2.22000000	        -17.90552341	        526.06659829	         34.16404658	          0.47544868	          0.00000000	          0.19197030	         -0.00455276	         -0.01981626	          0.00057755	         -0.00000683	          0.00000000	          0.00003535	          0.00000000	         -2.01047937	          0.00000000	          0.00000000	          0.00002573	          0.00000000	
          2.22100000	        -17.48247601	        526.02756771	         34.36722211	          0.47583619	          0.00000000	          0.19192892	         -0.00508579	         -0.02059175	          0.00049159	         -0.00000558	          0.00000000	          0.00003032	          0.00000000	         -2.02644881	          0.00000000	          0.00000000	          0.00002838	          0.00000000	
          2.22200000	        -17.06005989	        526.05016477	         34.56673328	          0.47622265	          0.00000000	          0.19188792	         -0.00555429	         -0.02122350	          0.00041108	         -0.00000442	          0.00000000	          0.00002561	          0.00000000	         -2.04237996	          0.00000000	          0.00000000	          0.00003070	          0.00000000	
          2.22300000	        -16.63814271	        526.13410448	         34.76199356	          0.47660802	          0.00000000	          0.19184737	         -0.00596196	         -0.02172133	          0.00033586	         -0.00000334	          0.00000000	          0.00002119	          0.00000000	         -2.05829694	          0.00000000	          0.00000000	          0.00003271	          0.00000000	
          2.22400000	        -16.21659723	        526.27906724	         34.95243803	          0.47699225	          0.00000000	          0.19180733	         -0.00631244	         -0.02209476	          0.00026577	         -0.00000234	          0.00000000	          0.00001708	          0.00000000	         -2.07422409	          0.00000000	          0.00000000	          0.00003443	          0.00000000	
